<svg xmlns="http://www.w3.org/2000/svg" viewBox="0 0 56 56" width="56" height="56">
  <rect width="56" height="56" rx="14" fill="#0D2E0A"/>
  <rect width="56" height="56" rx="14" fill="none" stroke="#39FF14" stroke-width="1.5"/>
  <!-- Soccer ball -->
  <circle cx="28" cy="24" r="13" fill="white"/>
  <circle cx="28" cy="24" r="13" fill="none" stroke="#1a1a1a" stroke-width="1"/>
  <!-- Pentagon patches -->
  <polygon points="28,14 32,18 31,23 25,23 24,18" fill="#1a1a1a"/>
  <polygon points="40,20 36,18 35,23 39,26 43,24" fill="#1a1a1a"/>
  <polygon points="17,20 21,18 22,23 18,26 14,24" fill="#1a1a1a"/>
  <polygon points="35,30 31,28 25,28 21,30 23,34 33,34" fill="#1a1a1a"/>
  <!-- Net lines -->
  <g stroke="#39FF14" stroke-width="1" opacity="0.6">
    <line x1="12" y1="38" x2="44" y2="38"/>
    <line x1="12" y1="42" x2="44" y2="42"/>
    <line x1="12" y1="46" x2="44" y2="46"/>
    <line x1="16" y1="38" x2="16" y2="46"/>
    <line x1="22" y1="38" x2="22" y2="46"/>
    <line x1="28" y1="38" x2="28" y2="46"/>
    <line x1="34" y1="38" x2="34" y2="46"/>
    <line x1="40" y1="38" x2="40" y2="46"/>
  </g>
  <rect x="12" y="37" width="32" height="10" rx="2" fill="none" stroke="#39FF14" stroke-width="1.5"/>
</svg>